<svg xmlns="http://www.w3.org/2000/svg" viewBox="0 0 100 100">
  <defs>
    <linearGradient id="rocketGradient" x1="0%" y1="0%" x2="100%" y2="100%">
      <stop offset="0%" style="stop-color:#3b82f6;stop-opacity:1" />
      <stop offset="100%" style="stop-color:#9333ea;stop-opacity:1" />
    </linearGradient>
  </defs>
  
  <!-- Rocket Body -->
  <path d="M 50 10 L 60 50 L 60 70 L 50 80 L 40 70 L 40 50 Z" fill="url(#rocketGradient)"/>
  
  <!-- Rocket Tip -->
  <path d="M 50 5 L 60 25 L 40 25 Z" fill="#1e40af"/>
  
  <!-- Window -->
  <circle cx="50" cy="35" r="8" fill="#e0f2fe" opacity="0.9"/>
  <circle cx="50" cy="35" r="5" fill="#0ea5e9" opacity="0.5"/>
  
  <!-- Left Fin -->
  <path d="M 40 60 L 30 75 L 40 70 Z" fill="#6366f1"/>
  
  <!-- Right Fin -->
  <path d="M 60 60 L 70 75 L 60 70 Z" fill="#6366f1"/>
  
  <!-- Flame - Orange -->
  <path d="M 45 80 L 42 90 L 50 95 L 45 80 Z" fill="#fb923c" opacity="0.9"/>
  
  <!-- Flame - Yellow -->
  <path d="M 50 80 L 50 95 L 55 80 Z" fill="#fbbf24" opacity="0.9"/>
  
  <!-- Flame - Red -->
  <path d="M 55 80 L 58 90 L 50 95 L 55 80 Z" fill="#f87171" opacity="0.9"/>
  
  <!-- Stars -->
  <circle cx="20" cy="20" r="1.5" fill="#fbbf24"/>
  <circle cx="80" cy="30" r="1.5" fill="#fbbf24"/>
  <circle cx="15" cy="50" r="1" fill="#fbbf24"/>
  <circle cx="85" cy="60" r="1" fill="#fbbf24"/>
</svg>
